<?xml version="1.0" standalone="no"?>
<svg xmlns="http://www.w3.org/2000/svg" viewBox="0 0 104.204 36" width="104.204" height="36"><g fill="#eb9f17" color="#eb9f17" transform="translate(76.204, 3.9999999999999982) scale(0.2800001)"><svg width="100.0" height="100.0" x="0.0" y="0.0" viewBox="0 0 100 100"><g><g><circle cx="14.681" cy="63.599" r="2.586"></circle><path d="M96.024,60.472c0.089-1.027-1.209-11.416-16.612-17.352c0.029-0.148,0.046-0.301,0.046-0.458    c0-1.229-0.966-2.227-2.159-2.227h-1.907l-1.127-2.231c1.432-0.015,2.784-0.052,3.605-0.129c2.2-0.209,4.598-3.965,6.141-5.944    c0.464-0.594-0.438-0.468-0.438-0.468l-16.479,1.465c0,0-0.812,0.415-0.562,2.022c0.25,1.607,1.819,3.025,1.819,3.025    s1.089,0.02,2.557,0.03l0.285,2.229H54.984l-0.778-1.542c1.755-0.007,3.536-0.041,4.533-0.136c2.2-0.208,4.598-3.965,6.141-5.943    c0.463-0.594-0.438-0.468-0.438-0.468l-16.48,1.465c0,0-0.812,0.415-0.562,2.022s1.82,3.026,1.82,3.026s0.41,0.007,1.062,0.016    l-0.164,1.641c-0.696,0.197-1.249,0.742-1.476,1.443c-5.543,2.313-1.439,6.993,1.138,12.697c-0.178,1.925-1.053,2.889-2.662,3.103    c-0.945,0.126-1.197,0.604-1.244,0.996h-9.67c-2.734,0-4.814-1.112-6.362-3.397c-2.754-4.073-3.001-10.81-1.503-14.547    c0.659-1.644,1.528-3.852,2.326-5.916c0.96-2.481-0.189-5.235-0.999-6.561c-0.014,0.04-14.209,19.638-2.051,30.95    c0.202,0.188,0.917,0.652,0.729,0.854c-0.099,0.105-1.092-0.579-1.189-0.669c-12.789-11.9,1.312-31.376,1.451-31.578    c0.104-0.149,0.273-0.217,0.442-0.207c-0.009-0.013-0.022-0.031-0.03-0.042c1.475-0.178,2.754-0.337,3.233-0.397    c0.063,0.008,0.128,0.014,0.193,0.014h3.208c0.848,0,1.534-0.687,1.534-1.533s-0.687-1.533-1.534-1.533h-2.141l-5.083-3.324    c-1.918-1.177-5.401-0.681-7.149-0.492c-1.151,0.124-1.229,1.456-1.229,1.456c0.008,0.146-0.006,0.351,0.002,0.6    c0.065,1.998,0.475,5.883,2.682,5.883c0.376,0,1.791-0.148,3.429-0.335c-0.956,2.341-5.21,13.032-6.288,14.209    c-1.234,1.349-3.438,1.312-4.514,5.832c-0.002,0.011-0.003,0.022-0.004,0.034c-6.315,0.088-11.44,3.113-12.035,5.031    c-0.303,0.977,1.689,1.613,4.064,2.118C5.039,57.245,3.55,60.25,3.55,63.599c0,6.138,4.994,11.131,11.131,11.131    c5.93,0,10.792-4.662,11.113-10.514h5.933c0.26,0.93,1.089,1.609,2.073,1.609h35.396c1.035,5.074,5.532,8.904,10.907,8.904    c6.138,0,11.131-4.993,11.131-11.131c0-0.254-0.012-0.504-0.029-0.755l0.779-0.015h1.887c0.185,0,0.363-0.026,0.535-0.071    c0.466-0.079,1.318-0.363,1.498-1.388c0.003-0.016,0.006-0.032,0.008-0.049c0.076-0.225,0.118-0.467,0.118-0.719    C96.031,60.558,96.026,60.515,96.024,60.472z M14.681,70.862c-4.005,0-7.264-3.258-7.264-7.264c0-3.603,2.636-6.599,6.081-7.166    c0.081,0.024,0.157,0.05,0.229,0.074c2.345,0.823,5.127,7.709,6.883,7.709h1.307C21.602,67.933,18.478,70.862,14.681,70.862z     M72.289,44.988c-6.73-1.615-24.872-3.988-19.712,8.587c0.106,0.259-0.06,0.548-0.337,0.636c-0.062,0.019-0.125,0.027-0.187,0.024    c-0.214-0.008-0.416-0.14-0.482-0.347c-1.91-5.972-2.231-8.014,1.346-9.889c8.041-4.214,28.97,0.132,37.331,9.721    c0.189,0.215,0.388,0.457,0.142,0.604c-0.112,0.067-0.147,0.139-0.332-0.074C86.369,50.023,79.498,46.718,72.289,44.988z     M80.104,70.862c-3.229,0-5.972-2.118-6.914-5.037h1.265c1.192,0,2.159-0.997,2.159-2.227c0-0.163-0.019-0.322-0.052-0.477    l0.832-0.016c-0.031,0.159-0.05,0.323-0.05,0.492c0,1.43,1.158,2.587,2.587,2.587c1.428,0,2.586-1.157,2.586-2.587    c0-0.203-0.029-0.398-0.073-0.588l4.891-0.093c0.021,0.224,0.033,0.451,0.033,0.681C87.368,67.604,84.109,70.862,80.104,70.862z     M86.293,58.41c-0.562-0.051-0.998-0.544-0.972-1.09c0.009-0.192,0.074-0.367,0.18-0.507c0.193-0.267,0.525-0.426,0.894-0.391    c1.019,0.096,5.92,0.595,5.947,1.148C92.366,58.122,87.376,58.512,86.293,58.41z"></path></g></g></svg></g><path fill="#000000" fill-rule="nonzero" d="M2.95 22.10L2.95 22.10Q2.37 22.08 1.92 21.49Q1.48 20.91 1.15 19.97Q0.82 19.03 0.60 17.84Q0.38 16.64 0.23 15.41Q0.09 14.18 0.05 13.02Q0 11.86 0 10.97L0 10.97Q0.02 9.56 0.22 8.07Q0.42 6.59 0.67 5.27Q0.91 3.96 1.16 2.94Q1.41 1.92 1.52 1.50L1.52 1.50Q1.69 0.82 1.97 0.57Q2.25 0.33 3.02 0.28L3.02 0.28L3.59 0.28Q3.82 0.30 4.05 0.33Q4.29 0.35 4.48 0.45L4.48 0.45Q3.63 2.13 3.12 3.87Q2.60 5.60 2.32 7.34Q2.04 9.07 1.97 10.75Q1.90 12.42 1.95 13.99L1.95 13.99Q1.99 15.23 2.09 16.30Q2.18 17.37 2.39 18.47L2.39 18.47Q2.60 19.55 2.88 19.71Q3.16 19.88 3.47 19.49Q3.77 19.10 4.07 18.36Q4.36 17.63 4.57 16.88L4.57 16.88Q4.71 16.38 4.99 15.46Q5.27 14.53 5.63 13.41Q5.98 12.28 6.36 11.06Q6.75 9.84 7.08 8.80Q7.41 7.76 7.65 6.98Q7.90 6.21 7.99 5.95L7.99 5.95Q8.13 5.58 8.38 4.91Q8.63 4.24 8.92 3.50Q9.21 2.77 9.53 2.03Q9.84 1.29 10.13 0.73L10.13 0.73Q10.41 0.19 10.76 0.09Q11.11 0 11.45 0.20Q11.79 0.40 12.08 0.80Q12.38 1.20 12.59 1.62L12.59 1.62Q12.28 1.73 11.96 2.19Q11.65 2.65 11.39 3.16L11.39 3.16Q11.09 3.77 10.80 4.48L10.80 4.48Q10.62 4.99 10.31 5.84Q10.01 6.68 9.67 7.69Q9.33 8.70 8.96 9.77Q8.60 10.85 8.27 11.81Q7.95 12.77 7.68 13.54Q7.41 14.30 7.24 14.67L7.24 14.67Q7.01 15.23 6.70 15.97Q6.40 16.71 6.06 17.48Q5.72 18.26 5.37 19.02Q5.02 19.78 4.66 20.39L4.66 20.39Q4.17 21.28 3.83 21.69Q3.49 22.10 2.95 22.10ZM16.17 3.75L16.17 3.75Q16.10 4.01 15.90 4.25Q15.70 4.50 15.46 4.65Q15.21 4.80 14.95 4.85Q14.70 4.90 14.53 4.76L14.53 4.76Q14.04 4.38 14.02 3.95Q13.99 3.52 14.23 3.13Q14.46 2.74 14.81 2.47Q15.16 2.20 15.42 2.16L15.42 2.16Q15.68 2.11 15.86 2.26Q16.03 2.41 16.13 2.66Q16.22 2.91 16.23 3.21Q16.24 3.52 16.17 3.75ZM12.94 8.74L12.94 8.74Q13.05 8.60 13.38 8.51Q13.71 8.41 14.06 8.36Q14.41 8.30 14.71 8.29Q15 8.27 15.05 8.30L15.05 8.30Q15.07 8.32 14.93 8.79Q14.79 9.26 14.58 9.89Q14.37 10.52 14.13 11.19Q13.90 11.86 13.78 12.28L13.78 12.28Q13.66 12.70 13.50 13.23Q13.34 13.76 13.21 14.26Q13.08 14.77 13.03 15.21Q12.98 15.66 13.10 15.89L13.10 15.89Q13.22 16.17 13.36 16.28Q13.50 16.38 13.66 16.38L13.66 16.38Q14.13 16.38 14.85 15.87Q15.56 15.35 16.30 14.64Q17.04 13.92 17.67 13.18Q18.30 12.45 18.61 12L18.61 12Q18.80 11.77 19.00 11.70Q19.20 11.63 19.32 11.72Q19.45 11.81 19.46 12.02Q19.48 12.23 19.31 12.52L19.31 12.52Q18.94 13.17 18.21 14.07Q17.48 14.98 16.66 15.81Q15.84 16.64 15.06 17.23Q14.27 17.81 13.78 17.84L13.78 17.84Q13.38 17.86 13.00 17.71Q12.61 17.55 12.29 17.29Q11.98 17.02 11.77 16.65Q11.55 16.29 11.53 15.89L11.53 15.89Q11.46 15.30 11.53 14.29Q11.60 13.27 11.79 12.20Q11.98 11.13 12.27 10.17Q12.56 9.21 12.94 8.74ZM24.56 18.14L24.56 18.14Q24.02 18.14 23.64 17.94Q23.25 17.74 23.02 17.41Q22.78 17.09 22.71 16.65Q22.64 16.22 22.76 15.73L22.76 15.73Q22.83 15.40 22.99 14.85Q23.16 14.30 23.33 13.65Q23.51 13.01 23.66 12.36Q23.81 11.72 23.86 11.19Q23.91 10.66 23.81 10.32Q23.72 9.98 23.41 9.98L23.41 9.98Q23.04 9.98 22.64 10.23Q22.24 10.48 21.83 10.90Q21.42 11.32 21.01 11.87Q20.60 12.42 20.20 13.01L20.20 13.01Q19.99 13.80 19.85 14.40Q19.71 15 19.61 15.48Q19.50 15.96 19.41 16.32Q19.31 16.69 19.24 17.02L19.24 17.02Q19.17 17.25 18.82 17.47Q18.47 17.70 18.07 17.84Q17.67 17.98 17.38 17.98Q17.09 17.98 17.13 17.77L17.13 17.77Q17.16 17.63 17.29 17.13Q17.41 16.64 17.59 15.97Q17.77 15.30 17.95 14.55Q18.14 13.80 18.30 13.13L18.30 13.13Q18.42 12.59 18.56 11.93L18.56 11.93Q18.68 11.37 18.86 10.62Q19.03 9.87 19.27 8.98L19.27 8.98Q19.43 8.84 19.61 8.75Q19.78 8.67 19.97 8.63L19.97 8.63Q20.16 8.55 20.37 8.53L20.37 8.53Q20.55 8.53 20.74 8.55L20.74 8.55Q20.91 8.58 21.08 8.64Q21.26 8.70 21.40 8.81L21.40 8.81Q21.33 8.98 21.23 9.27Q21.14 9.56 21.05 9.89L21.05 9.89Q20.95 10.27 20.81 10.66L20.81 10.66Q21.12 10.24 21.50 9.81Q21.89 9.38 22.35 9.02Q22.80 8.67 23.32 8.45Q23.84 8.23 24.38 8.23L24.38 8.23Q24.82 8.23 25.17 8.48Q25.52 8.74 25.72 9.20Q25.92 9.66 25.96 10.29Q25.99 10.92 25.78 11.67L25.78 11.67L25.52 12.70Q25.41 13.20 25.23 13.86Q25.05 14.53 24.80 15.33L24.80 15.33Q24.66 15.84 24.69 16.22Q24.73 16.59 25.15 16.59L25.15 16.59Q25.57 16.59 26.21 16.08Q26.86 15.56 27.52 14.84Q28.17 14.11 28.76 13.35Q29.34 12.59 29.65 12.12L29.65 12.12Q29.86 11.81 30.05 11.72Q30.23 11.63 30.34 11.70Q30.45 11.77 30.45 12.01Q30.45 12.26 30.26 12.63L30.26 12.63Q30.09 12.96 29.75 13.50Q29.41 14.04 28.95 14.65Q28.48 15.26 27.94 15.88Q27.40 16.50 26.81 17.00Q26.23 17.51 25.65 17.82Q25.08 18.14 24.56 18.14ZM37.34 11.63L37.34 11.63Q37.43 11.48 37.58 11.45Q37.73 11.41 37.83 11.48Q37.92 11.55 37.93 11.72Q37.95 11.88 37.80 12.16L37.80 12.16Q37.34 13.05 36.57 14.09Q35.81 15.12 34.97 16.02Q34.13 16.92 33.33 17.51Q32.53 18.09 31.99 18.09L31.99 18.09Q31.22 18.09 30.70 17.79Q30.19 17.48 29.89 17.04Q29.60 16.59 29.48 16.07Q29.37 15.54 29.41 15.09L29.41 15.09Q29.44 14.72 29.58 13.75Q29.72 12.77 29.95 11.50Q30.19 10.22 30.48 8.75Q30.77 7.29 31.10 5.93L31.10 5.93Q30.70 5.98 30.30 6.02Q29.91 6.07 29.58 6.07L29.58 6.07Q28.83 6.07 28.16 5.89Q27.49 5.72 27.16 5.55L27.16 5.55Q26.98 5.46 27 5.29Q27.02 5.11 27.14 4.93Q27.26 4.76 27.43 4.63Q27.61 4.50 27.75 4.50L27.75 4.50Q28.20 4.55 28.71 4.58Q29.23 4.62 29.84 4.59L29.84 4.59Q30.28 4.57 30.69 4.52Q31.10 4.48 31.50 4.41L31.50 4.41Q31.80 3.28 32.10 2.45Q32.39 1.62 32.63 1.29L32.63 1.29Q32.70 1.17 32.94 1.09Q33.19 1.01 33.47 0.97Q33.75 0.94 34.01 0.97Q34.27 1.01 34.38 1.15L34.38 1.15Q34.50 1.34 34.48 2.11Q34.45 2.88 34.22 4.08L34.22 4.08Q35.20 4.08 35.96 4.18Q36.73 4.29 37.27 4.42Q37.80 4.55 38.13 4.68Q38.46 4.80 38.63 4.85L38.63 4.85Q38.79 4.90 38.80 5.09Q38.81 5.27 38.73 5.47Q38.65 5.67 38.46 5.81Q38.27 5.95 38.04 5.91L38.04 5.91Q37.80 5.88 37.51 5.81Q37.22 5.74 36.81 5.70Q36.40 5.65 35.84 5.60Q35.27 5.55 34.52 5.55L34.52 5.55Q34.38 5.55 34.21 5.57Q34.03 5.58 33.84 5.58L33.84 5.58Q33.75 5.95 33.67 6.32Q33.59 6.68 33.45 7.08L33.45 7.08Q33.14 8.02 32.74 9.12L32.74 9.12Q32.39 10.08 31.90 11.32Q31.41 12.56 30.80 13.97L30.80 13.97Q30.66 14.98 30.83 15.50Q31.01 16.03 31.27 16.27L31.27 16.27Q31.57 16.52 32.02 16.55L32.02 16.55Q32.37 16.59 32.87 16.30Q33.38 16.01 33.91 15.52Q34.45 15.02 35.00 14.44Q35.55 13.85 36.02 13.29Q36.49 12.73 36.84 12.27Q37.20 11.81 37.34 11.63ZM47.95 12.89L47.95 12.89Q47.63 13.36 47.11 14.05Q46.59 14.74 46.04 15.43Q45.49 16.13 44.96 16.70Q44.44 17.27 44.09 17.51L44.09 17.51Q43.85 17.65 43.55 17.74Q43.24 17.84 42.93 17.86Q42.61 17.88 42.33 17.82Q42.05 17.77 41.84 17.63L41.84 17.63Q41.63 17.46 41.48 17.16L41.48 17.16Q41.37 16.90 41.26 16.48Q41.16 16.05 41.18 15.42L41.18 15.42Q40.62 16.36 39.94 16.86Q39.26 17.37 38.65 17.60L38.65 17.60Q37.95 17.86 37.24 17.91L37.24 17.91Q36.91 17.91 36.54 17.68Q36.16 17.46 35.91 16.98Q35.65 16.50 35.58 15.74Q35.51 14.98 35.77 13.92L35.77 13.92Q36.09 12.49 36.81 11.32Q37.52 10.15 38.37 9.32Q39.21 8.48 40.03 8.06Q40.85 7.64 41.39 7.69L41.39 7.69Q42.02 7.80 42.42 8.06L42.42 8.06Q42.75 8.30 42.86 8.75Q42.96 9.21 42.47 9.96L42.47 9.96Q42.80 9.89 43.02 9.87Q43.24 9.84 43.36 9.84L43.36 9.84Q43.50 9.84 43.55 9.87L43.55 9.87Q43.57 9.91 43.57 10.07Q43.57 10.22 43.50 10.62Q43.43 11.02 43.29 11.70Q43.15 12.38 42.91 13.45L42.91 13.45Q42.87 13.66 42.83 13.84Q42.80 14.02 42.76 14.19Q42.73 14.37 42.68 14.60Q42.63 14.84 42.56 15.19L42.56 15.19Q42.54 15.40 42.55 15.64Q42.56 15.89 42.63 16.10Q42.70 16.31 42.86 16.44Q43.01 16.57 43.29 16.57L43.29 16.57Q43.52 16.57 43.90 16.28Q44.27 15.98 44.70 15.53Q45.12 15.07 45.57 14.52Q46.03 13.97 46.43 13.45Q46.83 12.94 47.14 12.54Q47.46 12.14 47.60 11.95L47.60 11.95Q47.79 11.74 47.98 11.71Q48.16 11.67 48.26 11.81Q48.35 11.95 48.29 12.23Q48.23 12.52 47.95 12.89ZM41.09 13.92L41.09 13.92Q41.20 13.45 41.37 12.82Q41.53 12.19 41.65 11.60Q41.77 11.02 41.82 10.63Q41.88 10.24 41.79 10.27L41.79 10.27Q41.67 10.29 41.53 10.34L41.53 10.34Q41.41 10.38 41.23 10.41Q41.04 10.43 40.85 10.48L40.85 10.48Q41.04 10.10 41.07 9.86Q41.11 9.61 41.09 9.47L41.09 9.47Q41.06 9.30 40.99 9.21L40.99 9.21Q40.73 9 40.09 9.55Q39.45 10.10 38.60 11.58L38.60 11.58Q38.25 12.19 38.04 12.88Q37.83 13.57 37.75 14.18Q37.66 14.79 37.71 15.25Q37.76 15.70 37.90 15.84L37.90 15.84Q38.16 16.10 38.48 16.09Q38.81 16.08 39.15 15.90Q39.49 15.73 39.83 15.45Q40.17 15.16 40.44 14.86Q40.71 14.55 40.89 14.30Q41.06 14.04 41.09 13.92ZM52.57 20.91L52.57 20.91Q52.45 21.47 52.28 22.31Q52.10 23.16 51.88 24.09Q51.66 25.03 51.36 25.96Q51.07 26.88 50.72 27.62Q50.37 28.36 49.95 28.83Q49.52 29.30 49.01 29.30L49.01 29.30Q48.23 29.30 47.68 28.84Q47.13 28.38 46.76 27.69Q46.38 27 46.21 26.20Q46.03 25.41 46.03 24.73L46.03 24.73Q46.03 23.79 46.20 23.17Q46.36 22.55 46.77 21.98Q47.18 21.42 47.88 20.79Q48.59 20.16 49.69 19.22L49.69 19.22Q50.23 18.75 50.72 18.33Q51.21 17.91 51.66 17.55L51.66 17.55Q51.77 17.09 51.88 16.68Q51.98 16.27 52.05 15.94L52.05 15.94Q51.45 16.76 50.59 17.32Q49.73 17.88 48.63 17.88L48.63 17.88Q47.63 17.88 47.00 16.98Q46.38 16.08 46.38 14.32L46.38 14.32Q46.38 13.45 46.71 12.33Q47.04 11.20 47.65 10.22Q48.26 9.23 49.15 8.55Q50.04 7.88 51.14 7.88L51.14 7.88Q51.66 7.88 52.03 8.13Q52.41 8.39 52.66 8.78Q52.92 9.16 53.06 9.60Q53.20 10.03 53.27 10.41L53.27 10.41Q53.32 10.27 53.34 10.11Q53.37 9.96 53.41 9.84L53.41 9.84Q53.65 9.05 53.94 8.75Q54.23 8.46 54.82 8.46L54.82 8.46Q55.15 8.46 55.37 8.58Q55.59 8.70 55.59 8.79L55.59 8.79Q55.48 9.05 55.41 9.19Q55.34 9.33 55.27 9.48Q55.20 9.63 55.13 9.87Q55.05 10.10 54.94 10.55L54.94 10.55Q54.89 10.71 54.76 11.31Q54.63 11.91 54.43 12.73Q54.23 13.55 54.01 14.53Q53.79 15.52 53.58 16.45L53.58 16.45Q54.23 16.08 54.94 15.54Q55.64 15 56.27 14.44Q56.91 13.88 57.40 13.37Q57.89 12.87 58.13 12.54L58.13 12.54Q58.31 12.26 58.55 12.14Q58.78 12.02 58.96 12.06Q59.13 12.09 59.17 12.27Q59.20 12.45 59.02 12.75L59.02 12.75Q58.48 13.62 57.70 14.43Q56.93 15.23 56.12 15.93Q55.31 16.62 54.55 17.14Q53.79 17.67 53.25 18L53.25 18Q53.02 19.05 52.85 19.71Q52.69 20.37 52.57 20.91ZM49.62 16.29L49.62 16.29Q50.11 16.29 50.54 16.03Q50.98 15.77 51.33 15.43Q51.68 15.09 51.91 14.74Q52.15 14.39 52.27 14.18L52.27 14.18Q52.36 13.97 52.49 13.62Q52.62 13.27 52.69 12.94Q52.76 12.61 52.75 12.35Q52.73 12.09 52.57 12.07L52.57 12.07Q52.43 12.05 52.35 11.88Q52.27 11.72 52.22 11.51Q52.17 11.30 52.16 11.09Q52.15 10.88 52.13 10.71L52.13 10.71Q52.01 9.89 51.73 9.52Q51.45 9.14 51.09 9.14L51.09 9.14Q50.51 9.14 49.98 9.61Q49.45 10.08 49.04 10.82Q48.63 11.55 48.40 12.43Q48.16 13.31 48.16 14.11L48.16 14.11Q48.16 15.09 48.45 15.69Q48.73 16.29 49.62 16.29ZM48.54 27.16L48.54 27.16Q49.01 27.16 49.30 26.47Q49.59 25.78 49.92 24.59L49.92 24.59Q49.99 24.30 50.12 23.78Q50.25 23.25 50.43 22.57Q50.60 21.89 50.79 21.11Q50.98 20.32 51.19 19.52L51.19 19.52Q51 19.69 50.80 19.86Q50.60 20.04 50.39 20.27L50.39 20.27Q49.88 20.77 49.39 21.22Q48.91 21.68 48.54 22.18Q48.16 22.69 47.94 23.27Q47.72 23.86 47.72 24.63L47.72 24.63Q47.72 25.41 47.78 25.90Q47.84 26.39 47.94 26.67Q48.05 26.95 48.20 27.06Q48.35 27.16 48.54 27.16ZM68.04 12.68L68.04 12.68Q67.34 13.71 66.45 14.68Q65.55 15.66 64.56 16.42Q63.56 17.18 62.52 17.65Q61.48 18.12 60.49 18.12L60.49 18.12Q59.98 18.12 59.38 17.87Q58.78 17.63 58.29 17.11Q57.80 16.59 57.50 15.77Q57.21 14.95 57.33 13.78L57.33 13.78Q57.42 12.82 57.93 11.75Q58.43 10.69 59.17 9.80Q59.91 8.91 60.83 8.32Q61.76 7.73 62.70 7.73L62.70 7.73Q63.59 7.73 63.98 8.18Q64.38 8.63 64.34 9.28L64.34 9.28Q64.27 10.01 63.93 10.62Q63.59 11.23 63.12 11.72Q62.65 12.21 62.12 12.61Q61.59 13.01 61.13 13.34L61.13 13.34Q60.61 13.69 60.14 14.00Q59.67 14.32 59.32 14.58L59.32 14.58Q59.34 15.16 59.53 15.56Q59.72 15.96 60 16.21Q60.28 16.45 60.64 16.56Q61.01 16.66 61.38 16.66L61.38 16.66Q62.18 16.66 63.05 16.16Q63.91 15.66 64.75 14.94Q65.58 14.23 66.29 13.45Q67.01 12.68 67.48 12.12L67.48 12.12Q67.64 11.93 67.82 11.89Q67.99 11.86 68.10 11.94Q68.20 12.02 68.20 12.22Q68.20 12.42 68.04 12.68ZM62.04 9.07L62.04 9.07Q61.76 9.07 61.37 9.35Q60.98 9.63 60.61 10.16Q60.23 10.69 59.91 11.45Q59.58 12.21 59.41 13.20L59.41 13.20Q59.70 12.98 60.02 12.76Q60.35 12.54 60.68 12.28L60.68 12.28Q61.69 11.51 62.09 10.92Q62.48 10.34 62.53 9.91L62.53 9.91Q62.58 9.47 62.44 9.27Q62.30 9.07 62.04 9.07Z" transform="translate(0, 3.384)"></path></svg>